<svg xmlns="http://www.w3.org/2000/svg" xmlns:xlink="http://www.w3.org/1999/xlink" width="500" zoomAndPan="magnify" viewBox="0 0 375 374.999991" height="500" preserveAspectRatio="xMidYMid meet" version="1.0"><defs><clipPath id="9a16029271"><path d="M 75.703125 133 L 105.703125 133 L 105.703125 242.402344 L 75.703125 242.402344 Z M 75.703125 133 " clip-rule="nonzero"/></clipPath><clipPath id="2a73aa3e61"><path d="M 112.070312 132.441406 L 225 132.441406 L 225 242.691406 L 112.070312 242.691406 Z M 112.070312 132.441406 " clip-rule="nonzero"/></clipPath><clipPath id="8a147bd95c"><path d="M 138 169 L 250.070312 169 L 250.070312 231 L 138 231 Z M 138 169 " clip-rule="nonzero"/></clipPath></defs><rect x="-37.5" width="450" fill="#ffffff" y="-37.499999" height="449.999989" fill-opacity="1"/><rect x="-37.5" width="450" fill="#000000" y="-37.499999" height="449.999989" fill-opacity="1"/><g clip-path="url(#9a16029271)"><path fill="#ff3131" d="M 90.707031 163.183594 C 98.96875 163.183594 105.6875 156.464844 105.6875 148.207031 C 105.6875 139.945312 98.96875 133.226562 90.707031 133.226562 C 82.449219 133.226562 75.730469 139.945312 75.730469 148.207031 C 75.730469 156.464844 82.449219 163.183594 90.707031 163.183594 Z M 75.703125 188.410156 L 75.703125 242.230469 L 105.714844 242.230469 L 105.714844 161.761719 L 75.703125 188.410156 " fill-opacity="1" fill-rule="nonzero"/></g><path fill="#ffffff" d="M 298.523438 203.359375 C 297.875 194.738281 293.527344 187.886719 287.675781 181.890625 C 282.652344 176.746094 277.523438 171.691406 272.300781 166.746094 C 269.753906 164.335938 267.554688 161.472656 264.296875 159.875 C 264.175781 159.835938 264.058594 159.792969 263.941406 159.746094 C 263.660156 159.632812 263.382812 159.519531 263.101562 159.40625 C 260.449219 158.488281 258.222656 159.089844 256.277344 161.25 C 254.414062 163.316406 254.042969 165.742188 255.320312 168.3125 C 256.867188 171.421875 259.492188 173.59375 262.019531 175.84375 C 267.578125 181.386719 273.222656 186.835938 278.660156 192.488281 C 284.789062 198.867188 286.328125 206.386719 283.300781 214.703125 C 280.632812 222.015625 275.269531 226.261719 267.695312 227.816406 C 267.574219 227.839844 267.453125 227.867188 267.332031 227.890625 C 266.90625 227.917969 266.480469 227.949219 266.054688 227.976562 C 265.351562 227.964844 264.640625 227.941406 263.9375 227.949219 C 257.816406 228 252.644531 225.902344 248.5625 221.246094 C 247.246094 219.746094 246.183594 218.078125 245.058594 216.445312 C 243.699219 214.46875 242.054688 212.820312 239.480469 212.609375 C 234.179688 212.179688 230.535156 217.5 233.019531 222.523438 C 237.160156 230.898438 243.554688 237.042969 252.484375 240.21875 C 256.863281 241.773438 261.382812 242.523438 266.035156 241.488281 C 267.640625 241.582031 269.179688 241.183594 270.726562 240.863281 C 270.882812 240.804688 271.039062 240.742188 271.195312 240.683594 C 271.765625 240.550781 272.339844 240.417969 272.914062 240.285156 L 273.078125 240.335938 C 273.078125 240.335938 273.191406 240.199219 273.191406 240.199219 C 273.988281 240.339844 274.417969 239.554688 275.078125 239.433594 C 281.363281 238.261719 286.078125 234.34375 290.109375 229.894531 C 296.851562 222.449219 299.273438 213.308594 298.523438 203.359375 Z M 263.109375 175.226562 C 263.226562 175.097656 263.308594 174.957031 263.371094 174.808594 C 263.308594 174.957031 263.226562 175.097656 263.109375 175.226562 Z M 263.109375 175.226562 " fill-opacity="1" fill-rule="nonzero"/><path fill="#ffffff" d="M 242 195.984375 C 246.75 200.824219 251.410156 205.769531 256.652344 210.097656 C 257.871094 211.269531 259.019531 212.535156 260.332031 213.59375 C 263.523438 216.179688 268.414062 216.242188 270.679688 213.820312 C 273.011719 211.332031 272.617188 207.046875 269.492188 203.875 C 265.71875 200.050781 262.097656 196.066406 258.011719 192.5625 C 255.25 189.164062 251.738281 186.515625 248.78125 183.300781 C 247.054688 181.421875 245.113281 179.5625 244.097656 177.332031 C 240.433594 169.273438 241.335938 161.542969 246.804688 154.496094 C 247.6875 153.359375 248.527344 152.183594 249.773438 151.285156 C 253.140625 148.84375 256.910156 147.628906 260.945312 147.03125 C 266.988281 146.734375 272.421875 148.167969 276.960938 152.414062 C 279.300781 154.609375 280.785156 157.457031 282.878906 159.847656 C 284.855469 162.109375 287.375 163.160156 289.964844 162.257812 C 292.878906 161.242188 294.632812 158.773438 294.554688 155.828125 C 294.503906 153.855469 293.828125 152.074219 292.835938 150.421875 C 290.863281 147.140625 288.417969 144.304688 285.507812 141.734375 C 280.117188 136.960938 273.960938 134.261719 266.867188 133.511719 C 266.578125 133.476562 266.289062 133.441406 266.003906 133.40625 C 264.613281 132.949219 263.195312 133.167969 261.785156 133.210938 C 261.363281 133.1875 260.9375 133.132812 260.519531 133.15625 C 246.183594 133.910156 233.097656 144.59375 229.636719 158.5 C 227.050781 168.886719 228.226562 178.679688 234.472656 187.652344 C 236.632812 190.765625 239.382812 193.3125 242 195.984375 Z M 242 195.984375 " fill-opacity="1" fill-rule="nonzero"/><g clip-path="url(#2a73aa3e61)"><path fill="#ffffff" d="M 169.550781 199.902344 L 133.152344 172.386719 L 133.152344 242.546875 L 112.203125 242.546875 L 112.203125 132.445312 L 146.976562 158.734375 L 146.980469 158.734375 L 169.550781 175.800781 L 224.792969 133.238281 L 224.792969 158.136719 L 185.488281 187.851562 L 180.65625 191.507812 Z M 203.785156 210.949219 L 203.847656 242.550781 L 224.792969 242.550781 L 224.734375 195.109375 Z M 203.785156 210.949219 " fill-opacity="1" fill-rule="nonzero"/></g><g clip-path="url(#8a147bd95c)"><path fill="#ff3131" d="M 218.121094 169.488281 L 169.550781 206.214844 L 138.511719 182.746094 L 138.511719 206.847656 L 169.550781 230.316406 L 250.003906 169.488281 Z M 218.121094 169.488281 " fill-opacity="1" fill-rule="nonzero"/></g></svg>